<!--
  Podplane <https://podplane.dev>
  Copyright 2026 Nadrama Pty Ltd
  SPDX-License-Identifier: Apache-2.0
-->
<svg width="1621" height="458" viewBox="0 0 1621 458" fill="none" xmlns="http://www.w3.org/2000/svg">
<path d="M52 143L200.912 229.718L201 403L52.0882 316.282L52 143Z" fill="url(#paint0_linear_1797_33)"/>
<path d="M52 141.5L202 55L352 141.5L202 228L52 141.5Z" fill="#1D43FB"/>
<path d="M52 316.5L201 230V312V403L52 316.5Z" fill="url(#paint1_linear_1797_33)"/>
<path d="M352 143L203.088 229.718L203 403L351.912 316.282L352 143Z" fill="#1D43FB"/>
<path d="M189.016 120.409C199.049 118.492 204.652 118.569 214.684 120.409L220.873 158.126C228.23 163.901 233.029 166.703 243.982 169.268L277.656 151.194C286.811 157.117 290.667 161.249 293.503 171.249L267.423 200.713C268.133 210.169 269.097 215.569 273.035 225.556L307.864 239.174C308.616 249.711 307.596 255.227 302.252 264.1L263.378 260.798C254.803 267.089 251.563 271.588 247.532 280.689L262.883 314.941C255.527 323.168 250.425 325.364 240.021 325.999L214.684 295.958C203.991 293.683 198.487 293.94 189.181 295.958L163.925 325.999C153.242 324.364 148.348 321.77 140.98 314.941L156.085 280.689C151.907 271.53 148.487 267.116 140.073 260.798L101.694 264.347C97.9075 254.39 96.8024 248.954 96 239.422L130.334 225.556C133.365 215.719 134.664 210.302 136.029 200.713L111.847 169.268C115.712 160.15 119.06 155.632 128.105 149.13L159.551 169.268C169.572 167.025 174.675 164.749 182.578 158.126L189.016 120.409ZM169.79 200.828L161.901 235.391L184.005 263.109H219.457L241.561 235.391L233.672 200.828L201.731 185.446L169.79 200.828Z" fill="white"/>
<path d="M52 141.5L202 55L352 141.5L202 228L52 141.5Z" fill="#1D43FB" fill-opacity="0.3"/>
<path d="M352 143L203.088 229.718L203 403L351.912 316.282L352 143Z" fill="#1D43FB" fill-opacity="0.4"/>
<path d="M478.957 321.385C465.218 321.385 453.696 318.128 444.391 311.615C435.087 305.103 428.087 296.245 423.391 285.043C418.696 273.754 416.348 261.119 416.348 247.138C416.348 232.984 418.696 220.306 423.391 209.104C428.087 197.902 434.957 189.088 444 182.662C453.131 176.149 464.392 172.892 477.783 172.892C491.087 172.892 502.609 176.149 512.348 182.662C522.174 189.088 529.783 197.902 535.174 209.104C540.566 220.219 543.261 232.897 543.261 247.138C543.261 261.206 540.609 273.841 535.305 285.043C530 296.245 522.522 305.103 512.87 311.615C503.218 318.128 491.913 321.385 478.957 321.385ZM411 380V176.8H438.783V275.534H442.696V380H411ZM474.131 293.249C482.305 293.249 489.044 291.209 494.348 287.127C499.653 283.046 503.566 277.532 506.087 270.585C508.696 263.551 510 255.735 510 247.138C510 238.628 508.696 230.9 506.087 223.953C503.479 216.919 499.435 211.361 493.957 207.28C488.479 203.112 481.522 201.028 473.087 201.028C465.087 201.028 458.565 202.982 453.522 206.889C448.478 210.71 444.739 216.094 442.304 223.041C439.957 229.901 438.783 237.934 438.783 247.138C438.783 256.256 439.957 264.289 442.304 271.236C444.739 278.183 448.522 283.61 453.652 287.518C458.87 291.339 465.696 293.249 474.131 293.249Z" fill="#1D43FB"/>
<path d="M634.23 321.385C620.143 321.385 607.838 318.215 597.317 311.876C586.795 305.537 578.621 296.81 572.795 285.694C567.056 274.492 564.186 261.64 564.186 247.138C564.186 232.376 567.143 219.437 573.056 208.322C578.969 197.207 587.186 188.523 597.708 182.271C608.23 176.018 620.404 172.892 634.23 172.892C648.404 172.892 660.752 176.062 671.273 182.401C681.795 188.74 689.969 197.511 695.795 208.713C701.621 219.828 704.534 232.637 704.534 247.138C704.534 261.727 701.578 274.623 695.665 285.825C689.839 296.94 681.665 305.667 671.143 312.006C660.621 318.258 648.317 321.385 634.23 321.385ZM634.23 291.947C646.752 291.947 656.056 287.778 662.143 279.442C668.23 271.106 671.273 260.338 671.273 247.138C671.273 233.505 668.186 222.65 662.012 214.574C655.839 206.412 646.578 202.33 634.23 202.33C625.795 202.33 618.838 204.241 613.36 208.062C607.969 211.796 603.969 217.049 601.36 223.823C598.751 230.509 597.447 238.281 597.447 247.138C597.447 260.772 600.534 271.67 606.708 279.833C612.969 287.909 622.143 291.947 634.23 291.947Z" fill="#1D43FB"/>
<path d="M789.751 321.385C776.795 321.385 765.49 318.128 755.838 311.615C746.186 305.103 738.708 296.245 733.403 285.043C728.099 273.841 725.447 261.206 725.447 247.138C725.447 232.897 728.099 220.219 733.403 209.104C738.795 197.902 746.403 189.088 756.23 182.662C766.056 176.149 777.621 172.892 790.925 172.892C804.317 172.892 815.534 176.149 824.578 182.662C833.708 189.088 840.621 197.902 845.317 209.104C850.013 220.306 852.36 232.984 852.36 247.138C852.36 261.119 850.013 273.754 845.317 285.043C840.621 296.245 833.621 305.103 824.317 311.615C815.012 318.128 803.491 321.385 789.751 321.385ZM794.577 293.249C803.012 293.249 809.795 291.339 814.925 287.518C820.143 283.61 823.925 278.183 826.273 271.236C828.708 264.289 829.925 256.256 829.925 247.138C829.925 237.934 828.708 229.901 826.273 223.041C823.925 216.094 820.23 210.71 815.186 206.889C810.143 202.982 803.621 201.028 795.621 201.028C787.186 201.028 780.23 203.112 774.751 207.28C769.273 211.361 765.23 216.919 762.621 223.953C760.012 230.9 758.708 238.628 758.708 247.138C758.708 255.735 759.969 263.551 762.49 270.585C765.099 277.532 769.056 283.046 774.36 287.127C779.664 291.209 786.404 293.249 794.577 293.249ZM829.925 317.477V218.743H826.012V129.908H857.708V317.477H829.925Z" fill="#1D43FB"/>
<path d="M967.331 321.385C953.591 321.385 942.07 318.128 932.765 311.615C923.461 305.103 916.461 296.245 911.765 285.043C907.07 273.754 904.722 261.119 904.722 247.138C904.722 232.984 907.07 220.306 911.765 209.104C916.461 197.902 923.33 189.088 932.374 182.662C941.504 176.149 952.765 172.892 966.157 172.892C979.461 172.892 990.983 176.149 1000.72 182.662C1010.55 189.088 1018.16 197.902 1023.55 209.104C1028.94 220.219 1031.64 232.897 1031.64 247.138C1031.64 261.206 1028.98 273.841 1023.68 285.043C1018.37 296.245 1010.9 305.103 1001.24 311.615C991.592 318.128 980.287 321.385 967.331 321.385ZM899.374 380V176.8H927.157V275.534H931.07V380H899.374ZM962.505 293.249C970.678 293.249 977.418 291.209 982.722 287.127C988.026 283.046 991.939 277.532 994.461 270.585C997.07 263.551 998.374 255.735 998.374 247.138C998.374 238.628 997.07 230.9 994.461 223.953C991.852 216.919 987.809 211.361 982.331 207.28C976.852 203.112 969.896 201.028 961.461 201.028C953.461 201.028 946.939 202.982 941.896 206.889C936.852 210.71 933.113 216.094 930.678 223.041C928.331 229.901 927.157 237.934 927.157 247.138C927.157 256.256 928.331 264.289 930.678 271.236C933.113 278.183 936.896 283.61 942.026 287.518C947.244 291.339 954.07 293.249 962.505 293.249Z" fill="#1D43FB"/>
<path d="M1062.99 317.477V126H1094.43V317.477H1062.99Z" fill="#1D43FB"/>
<path d="M1172.89 321.385C1162.72 321.385 1154.11 319.474 1147.07 315.653C1140.02 311.746 1134.68 306.579 1131.02 300.153C1127.46 293.727 1125.67 286.65 1125.67 278.921C1125.67 272.148 1126.81 266.069 1129.07 260.685C1131.33 255.214 1134.81 250.525 1139.5 246.617C1144.2 242.623 1150.28 239.367 1157.76 236.848C1163.41 235.025 1170.02 233.375 1177.59 231.898C1185.24 230.422 1193.5 229.076 1202.37 227.861C1211.33 226.558 1220.68 225.169 1230.41 223.692L1219.2 230.075C1219.28 220.349 1217.11 213.185 1212.68 208.583C1208.24 203.98 1200.76 201.679 1190.24 201.679C1183.89 201.679 1177.76 203.155 1171.85 206.108C1165.94 209.06 1161.81 214.14 1159.46 221.348L1130.76 212.36C1134.24 200.463 1140.85 190.911 1150.59 183.704C1160.41 176.496 1173.63 172.892 1190.24 172.892C1202.76 172.892 1213.76 174.933 1223.24 179.014C1232.81 183.096 1239.89 189.782 1244.5 199.074C1247.02 204.024 1248.54 209.104 1249.07 214.314C1249.59 219.437 1249.85 225.038 1249.85 231.117V317.477H1222.33V286.997L1226.89 291.947C1220.54 302.107 1213.11 309.575 1204.59 314.351C1196.15 319.04 1185.59 321.385 1172.89 321.385ZM1179.15 296.375C1186.28 296.375 1192.37 295.116 1197.41 292.598C1202.46 290.08 1206.46 286.997 1209.41 283.35C1212.46 279.703 1214.5 276.272 1215.54 273.059C1217.2 269.065 1218.11 264.506 1218.28 259.383C1218.54 254.172 1218.68 249.961 1218.68 246.748L1228.33 249.613C1218.85 251.09 1210.72 252.392 1203.94 253.521C1197.15 254.65 1191.33 255.735 1186.46 256.777C1181.59 257.733 1177.28 258.818 1173.54 260.034C1169.89 261.336 1166.81 262.856 1164.28 264.593C1161.76 266.33 1159.81 268.327 1158.41 270.585C1157.11 272.842 1156.46 275.491 1156.46 278.53C1156.46 282.004 1157.33 285.087 1159.07 287.778C1160.81 290.384 1163.33 292.468 1166.63 294.031C1170.02 295.594 1174.2 296.375 1179.15 296.375Z" fill="#1D43FB"/>
<path d="M1381.24 317.477V249.744C1381.24 245.315 1380.94 240.409 1380.33 235.025C1379.72 229.641 1378.29 224.474 1376.03 219.524C1373.85 214.488 1370.55 210.363 1366.11 207.15C1361.76 203.937 1355.85 202.33 1348.37 202.33C1344.37 202.33 1340.42 202.982 1336.5 204.284C1332.59 205.587 1329.02 207.844 1325.81 211.057C1322.68 214.184 1320.16 218.525 1318.24 224.083C1316.33 229.554 1315.37 236.588 1315.37 245.185L1296.72 237.239C1296.72 225.255 1299.02 214.401 1303.63 204.675C1308.33 194.949 1315.2 187.221 1324.24 181.489C1333.29 175.671 1344.42 172.762 1357.63 172.762C1368.07 172.762 1376.68 174.499 1383.46 177.972C1390.24 181.446 1395.63 185.875 1399.63 191.258C1403.63 196.642 1406.59 202.374 1408.5 208.452C1410.42 214.531 1411.63 220.306 1412.16 225.776C1412.76 231.16 1413.07 235.546 1413.07 238.932V317.477H1381.24ZM1283.55 317.477V176.8H1311.59V220.436H1315.37V317.477H1283.55Z" fill="#1D43FB"/>
<path d="M1508.86 321.385C1494.6 321.385 1482.07 318.302 1471.29 312.136C1460.51 305.971 1452.07 297.417 1445.99 286.476C1439.99 275.534 1436.99 262.943 1436.99 248.702C1436.99 233.331 1439.94 220.002 1445.86 208.713C1451.77 197.337 1459.99 188.523 1470.51 182.271C1481.03 176.018 1493.2 172.892 1507.03 172.892C1521.64 172.892 1534.03 176.322 1544.21 183.183C1554.47 189.956 1562.07 199.551 1567.03 211.969C1571.99 224.387 1573.86 239.019 1572.64 255.866H1541.47V244.403C1541.38 229.12 1538.68 217.961 1533.38 210.927C1528.07 203.893 1519.73 200.376 1508.34 200.376C1495.47 200.376 1485.9 204.371 1479.64 212.36C1473.38 220.262 1470.25 231.855 1470.25 247.138C1470.25 261.38 1473.38 272.408 1479.64 280.224C1485.9 288.039 1495.03 291.947 1507.03 291.947C1514.77 291.947 1521.42 290.253 1526.99 286.867C1532.64 283.393 1536.99 278.4 1540.03 271.887L1571.07 281.266C1565.68 293.944 1557.34 303.8 1546.03 310.834C1534.81 317.868 1522.42 321.385 1508.86 321.385ZM1460.34 255.866V232.159H1557.25V255.866H1460.34Z" fill="#1D43FB"/>
<defs>
<linearGradient id="paint0_linear_1797_33" x1="52" y1="280.88" x2="201" y2="265.12" gradientUnits="userSpaceOnUse">
<stop stop-color="#1D43FB"/>
<stop offset="1" stop-color="#112895"/>
</linearGradient>
<linearGradient id="paint1_linear_1797_33" x1="52" y1="388.38" x2="201" y2="244.62" gradientUnits="userSpaceOnUse">
<stop stop-color="#1D43FB"/>
<stop offset="1" stop-color="#112895"/>
</linearGradient>
</defs>
</svg>
